<?xml version="1.0" encoding="utf-8"?>
<!-- Generator: Adobe Illustrator 23.0.3, SVG Export Plug-In . SVG Version: 6.00 Build 0)  -->
<svg version="1.1" id="Capa_1" xmlns="http://www.w3.org/2000/svg" xmlns:xlink="http://www.w3.org/1999/xlink" x="0px" y="0px"
	 viewBox="0 0 593 486.7" style="enable-background:new 0 0 593 486.7;" xml:space="preserve">
<style type="text/css">
	.st0{fill:#FFFFFF;}
	.st1{fill:#572A6B;}
</style>
<g>
	<polygon class="st0" points="118.4,359.8 116.7,359.8 7.5,346 7.5,137.8 116.8,126.8 118.4,126.8 257,43.2 257,443.4 	"/>
	<path class="st1" d="M249.5,56.4V430l-129.1-77.8h-3.3L15,339.4v-47.1v-87.7v-60l102.1-10.3h3.3L249.5,56.4 M264.5,29.9l-22.7,13.7
		l-125.5,75.7l-0.6,0.1L13.6,129.7L0,131v13.6v60v87.7v47.1v13.2l13.1,1.7l102.1,12.9l0.9,0.1h0.1L241.7,443l22.7,13.7v-26.6V56.4
		L264.5,29.9L264.5,29.9z"/>
</g>
<g id="mute_1_">
	<polygon class="st0" points="433,284 351.4,365.5 310.9,324.9 392.4,243.4 310.9,161.8 351.4,121.3 433,202.8 514.5,121.3 
		555.1,161.8 473.5,243.4 555.1,324.9 514.5,365.5 	"/>
	<path class="st1" d="M514.5,131.9l30,30L463,243.4l81.5,81.5l-30,30L433,273.4l-81.5,81.5l-30-30l81.5-81.5l-81.5-81.5l30-30
		l81.5,81.5L514.5,131.9 M514.5,110.6l-10.6,10.6L433,192.1l-70.9-70.9l-10.6-10.6l-10.6,10.6l-30,30l-10.6,10.6l10.6,10.6
		l70.9,70.9l-70.9,70.9l-10.6,10.6l10.6,10.6l30,30l10.6,10.6l10.6-10.6l70.9-70.9l70.9,70.9l10.6,10.6l10.6-10.6l30-30l10.6-10.6
		l-10.6-10.6l-70.9-70.9l70.9-70.9l10.6-10.6l-10.6-10.6l-30-30L514.5,110.6L514.5,110.6z"/>
</g>
<g id="unmute">
	<g>
		<path class="st0" d="M404.5,423.5l4.2-5.3c42.9-54,62.9-109.4,62.9-174.3c0-65.2-20.2-120.9-63.6-175.2l-4.2-5.2l44.4-44.6
			l5.3,6.1c51.1,58.9,80.4,138.7,80.4,219c0,79.7-28.9,159.1-79.4,217.8l-5.3,6.1L404.5,423.5z"/>
		<path class="st1" d="M447.8,29.9c49.4,57,78.5,135.6,78.5,214.1c0,78-28.7,156-77.6,213l-34.2-34c43.9-55.3,64.5-112.7,64.5-179
			c0-66.7-20.8-124.3-65.3-179.9L447.8,29.9 M448.6,7.8l-11.4,11.4l-34,34.1l-9.4,9.5l8.4,10.5c42.3,52.9,62,107.1,62,170.5
			c0,63.1-19.5,117-61.3,169.6l-8.3,10.5l9.5,9.5l34.2,34l11.4,11.4l10.5-12.2c25.2-29.3,45.9-65,59.8-103.2
			c14-38.3,21.4-79.6,21.4-119.5c0-40.2-7.5-81.7-21.7-120.3C505.6,85.2,484.6,49.4,459.1,20L448.6,7.8L448.6,7.8z"/>
	</g>
	<g>
		<path class="st0" d="M314.2,333.4l2.8-5c14.9-26.7,21.6-52.7,21.6-84.5c0-27.9-7.5-56.6-22.3-85.3l-2.5-4.9l46.2-46.4l5,8.2
			c23.2,38.3,35.9,83.9,35.9,128.4c0,44.1-12.5,89.3-35.3,127.4l-4.9,8.2L314.2,333.4z"/>
		<path class="st1" d="M358.5,119.4c22,36.4,34.8,80.9,34.8,124.5c0,43.2-12.6,87.3-34.3,123.5L323.5,332
			c14.6-26,22.6-52.9,22.6-88.1c0-34.8-11.1-65.5-23.2-88.8L358.5,119.4 M361.4,95.2l-13.5,13.6l-35.5,35.7l-7.7,7.7l5,9.7
			c14.3,27.6,21.5,55.2,21.5,81.9c0,30.4-6.4,55.3-20.7,80.8l-5.6,9.9l8.1,8l35.5,35.4l13.6,13.5l9.9-16.5
			c23.5-39.2,36.4-85.8,36.4-131.2c0-45.9-13.1-92.9-37-132.3L361.4,95.2L361.4,95.2z"/>
	</g>
</g>
</svg>
